:FULLY-SPECIFIED
:FORCE-ALL-JOINTS-BE-3DOF
:DEGREES
2650
root -1.75996 15.0949 -28.5927 166.552 -72.9933 -171.354
lfemur -33.4592 26.0146 -2.70601
ltibia 59.4183 -0 0
lfoot 13.1675 12.8226 -0.0160374
ltoes 2.08769 -0 0
rfemur -33.9027 -22.1231 20.4769
rtibia 68.5094 -0 0
rfoot -22.7085 -11.1107 -0.102294
rtoes -6.43045 0 0
lowerback 16.2196 3.82036 0.910274
upperback -0.685074 5.35519 1.37383
thorax -9.59374 2.53949 -0.226104
lowerneck -3.24447 8.49942 1.17428
upperneck 6.48034 11.1752 1.26522
head 2.57136 5.63439 0.616431
lclavicle -7.76456e-14 -1.07344e-14 0
lhumerus 22.3008 -27.7203 72.0502
lradius 117.813 -0 0
lwrist 1.53896 0 0
lhand -37.1628 33.2611 0.430992
lfingers 7.12502 -0 0
lthumb -10.2282 63.0035 0.459807
rclavicle -7.76456e-14 -1.07344e-14 0
rhumerus -27.242 49.6094 -84.9368
rradius 104.549 -0 0
rwrist -47.4468 0 0
rhand -10.0732 -23.6452 0.304607
rfingers 7.12502 -0 0
rthumb 15.892 -52.6542 0.365858
2651
root -1.87331 15.0954 -28.5656 167.267 -71.8514 -172.24
lfemur -33.6128 26.3089 -2.59596
ltibia 57.8631 -0 0
lfoot 13.9991 12.793 -0.0343851
ltoes 3.04463 -0 0
rfemur -33.5171 -21.7847 20.2642
rtibia 68.6969 -0 0
rfoot -23.0094 -11.0387 -0.100647
rtoes -6.43761 0 0
lowerback 16.1919 3.99257 1.08365
upperback -0.685971 5.60888 1.28789
thorax -9.56422 2.64998 -0.478589
lowerneck -3.17716 8.66724 1.32053
upperneck 6.63208 11.3964 1.1758
head 2.63252 5.74336 0.573039
lclavicle -7.76456e-14 -1.07344e-14 0
lhumerus 20.4501 -25.9169 72.8799
lradius 117.356 -0 0
lwrist -0.277198 0 0
lhand -37.5215 32.7446 0.415613
lfingers 7.12502 -0 0
lthumb -10.5745 62.4644 0.442033
rclavicle -7.76456e-14 -1.07344e-14 0
rhumerus -28.2566 50.4386 -85.7568
rradius 105.555 -0 0
rwrist -50.5243 0 0
rhand -9.33636 -23.4968 0.292403
rfingers 7.12502 -0 0
rthumb 16.6021 -52.4591 0.351369
2652
root -1.98665 15.0958 -28.5384 167.863 -70.7377 -173.002
lfemur -33.7743 26.604 -2.49082
ltibia 56.3427 -0 0
lfoot 14.8029 12.7601 -0.0519803
ltoes 3.96294 -0 0
rfemur -33.143 -21.449 20.06
rtibia 68.8892 -0 0
rfoot -23.3075 -10.9757 -0.0982591
rtoes -6.44283 0 0
lowerback 16.1658 4.16215 1.25283
upperback -0.688532 5.85843 1.20383
thorax -9.53774 2.75882 -0.725789
lowerneck -3.10993 8.82946 1.46287
upperneck 6.7807 11.6106 1.09075
head 2.69261 5.84879 0.531381
lclavicle -7.76456e-14 -1.07344e-14 0
lhumerus 18.6768 -24.1152 73.6289
lradius 116.894 -0 0
lwrist -2.05853 0 0
lhand -37.87 32.2373 0.397707
lfingers 7.12502 -0 0
lthumb -10.9109 61.9348 0.421656
rclavicle -7.76456e-14 -1.07344e-14 0
rhumerus -29.2884 51.2476 -86.5998
rradius 106.545 -0 0
rwrist -53.553 0 0
rhand -8.60894 -23.3546 0.278313
rfingers 7.12502 -0 0
rthumb 17.303 -52.2708 0.334577
2653
root -2.09999 15.0963 -28.5112 168.362 -69.6541 -173.662
lfemur -33.9438 26.8994 -2.39048
ltibia 54.863 -0 0
lfoot 15.5762 12.723 -0.068439
ltoes 4.83849 -0 0
rfemur -32.7809 -21.1171 19.865
rtibia 69.0851 -0 0
rfoot -23.6023 -10.9221 -0.0951445
rtoes -6.44977 0 0
lowerback 16.1413 4.32852 1.41733
upperback -0.692842 6.10306 1.12198
thorax -9.51447 2.86564 -0.966892
lowerneck -3.04321 8.98614 1.60114
upperneck 6.92568 11.8178 1.00995
head 2.75136 5.95071 0.49143
lclavicle -7.76456e-14 -1.07344e-14 0
lhumerus 16.9804 -22.323 74.3014
lradius 116.431 -0 0
lwrist -3.80034 0 0
lhand -38.2079 31.7409 0.377446
lfingers 7.12502 -0 0
lthumb -11.2372 61.4163 0.398878
rclavicle -7.76456e-14 -1.07344e-14 0
rhumerus -30.3369 52.0325 -87.4652
rradius 107.514 -0 0
rwrist -56.5237 0 0
rhand -7.89314 -23.2191 0.262504
rfingers 7.12502 -0 0
rthumb 17.9926 -52.0897 0.315678
2654
root -2.21333 15.0967 -28.4841 168.782 -68.6024 -174.235
lfemur -34.121 27.1946 -2.29482
ltibia 53.4296 -0 0
lfoot 16.3164 12.681 -0.0833652
ltoes 5.66712 -0 0
rfemur -32.4315 -20.7906 19.6797
rtibia 69.2835 -0 0
rfoot -23.8931 -10.8784 -0.0913217
rtoes -6.45909 0 0
lowerback 16.1183 4.49113 1.57667
upperback -0.69898 6.34195 1.04268
thorax -9.49459 2.97009 -1.20109
lowerneck -2.97742 9.13733 1.7352
upperneck 7.06649 12.0181 0.933273
head 2.8085 6.04916 0.453162
lclavicle -7.76456e-14 -1.07344e-14 0
lhumerus 15.361 -20.5478 74.9018
lradius 115.968 -0 0
lwrist -5.49792 0 0
lhand -38.535 31.2568 0.355017
lfingers 7.12502 -0 0
lthumb -11.5529 60.9106 0.373919
rclavicle -7.76456e-14 -1.07344e-14 0
rhumerus -31.4012 52.7899 -88.3519
rradius 108.459 -0 0
rwrist -59.4268 0 0
rhand -7.19115 -23.0908 0.24516
rfingers 7.12502 -0 0
rthumb 18.6689 -51.9166 0.294893
2655
root -2.32668 15.0971 -28.4569 169.137 -67.5843 -174.734
lfemur -34.3058 27.4892 -2.20372
ltibia 52.0484 -0 0
lfoot 17.0209 12.6333 -0.0963547
ltoes 6.44468 -0 0
rfemur -32.0951 -20.4709 19.5047
rtibia 69.4833 -0 0
rfoot -24.1794 -10.8451 -0.0868133
rtoes -6.47145 0 0
lowerback 16.097 4.64942 1.73038
upperback -0.707023 6.57433 0.966269
thorax -9.47826 3.07178 -1.42756
lowerneck -2.91298 9.28309 1.86488
upperneck 7.20261 12.2114 0.860575
head 2.86375 6.14419 0.416547
lclavicle -7.76456e-14 -1.07344e-14 0
lhumerus 13.8184 -18.7974 75.4347
lradius 115.505 -0 0
lwrist -7.14657 0 0
lhand -38.8512 30.7866 0.330623
lfingers 7.12502 -0 0
lthumb -11.8581 60.4194 0.347013
rclavicle -7.76456e-14 -1.07344e-14 0
rhumerus -32.4801 53.516 -89.2582
rradius 109.377 -0 0
rwrist -62.2532 0 0
rhand -6.50512 -22.9702 0.226484
rfingers 7.12502 -0 0
rthumb 19.3298 -51.7519 0.272465
2656
root -2.44002 15.0976 -28.4297 169.436 -66.6014 -175.17
lfemur -34.498 27.7828 -2.11704
ltibia 50.725 -0 0
lfoot 17.687 12.5792 -0.106998
ltoes 7.16703 -0 0
rfemur -31.7723 -20.1594 19.3405
rtibia 69.6832 -0 0
rfoot -24.4606 -10.8226 -0.0816452
rtoes -6.48748 0 0
lowerback 16.0772 4.80282 1.87797
upperback -0.717043 6.79941 0.89307
thorax -9.46565 3.17035 -1.6455
lowerneck -2.85031 9.42347 1.99003
upperneck 7.33349 12.398 0.791725
head 2.91683 6.23583 0.38156
lclavicle -7.76456e-14 -1.07344e-14 0
lhumerus 12.3531 -17.0789 75.9047
lradius 115.046 -0 0
lwrist -8.74159 0 0
lhand -39.156 30.3319 0.30448
lfingers 7.12502 -0 0
lthumb -12.1523 59.9444 0.318412
rclavicle -7.76456e-14 -1.07344e-14 0
rhumerus -33.5716 54.2073 -90.1817
rradius 110.265 -0 0
rwrist -64.9935 0 0
rhand -5.83725 -22.8576 0.20669
rfingers 7.12502 -0 0
rthumb 19.9732 -51.5963 0.248654
2657
root -2.55336 15.098 -28.4026 169.688 -65.6553 -175.549
lfemur -34.6976 28.0748 -2.03466
ltibia 49.4652 -0 0
lfoot 18.312 12.518 -0.114887
ltoes 7.83001 -0 0
rfemur -31.4636 -19.8575 19.1877
rtibia 69.8821 -0 0
rfoot -24.7362 -10.8115 -0.0758455
rtoes -6.50786 0 0
lowerback 16.059 4.95078 2.01897
upperback -0.729108 7.01639 0.823424
thorax -9.45692 3.26541 -1.85409
lowerneck -2.78983 9.55853 2.11049
upperneck 7.45859 12.5777 0.726585
head 2.96747 6.32411 0.348172
lclavicle -7.76456e-14 -1.07344e-14 0
lhumerus 10.9657 -15.3998 76.3165
lradius 114.591 -0 0
lwrist -10.2783 0 0
lhand -39.4494 29.8941 0.276816
lfingers 7.12502 -0 0
lthumb -12.4354 59.4873 0.288375
rclavicle -7.76456e-14 -1.07344e-14 0
rhumerus -34.6731 54.8604 -91.1196
rradius 111.118 -0 0
rwrist -67.6384 0 0
rhand -5.1897 -22.7537 0.186006
rfingers 7.12502 -0 0
rthumb 20.5969 -51.4504 0.223738
2658
root -2.66671 15.0985 -28.3754 169.901 -64.7475 -175.878
lfemur -34.9043 28.3648 -1.95644
ltibia 48.2749 -0 0
lfoot 18.8932 12.4488 -0.119613
ltoes 8.42948 -0 0
rfemur -31.1695 -19.5667 19.0466
rtibia 70.0788 -0 0
rfoot -25.0055 -10.8123 -0.0694442
rtoes -6.53322 0 0
lowerback 16.0424 5.09273 2.15289
upperback -0.743284 7.22448 0.757666
thorax -9.45223 3.35659 -2.05251
lowerneck -2.73196 9.68835 2.22611
upperneck 7.57739 12.7508 0.665017
head 3.01539 6.40908 0.316355
lclavicle -7.76456e-14 -1.07344e-14 0
lhumerus 9.65746 -13.7671 76.6749
lradius 114.143 -0 0
lwrist -11.7519 0 0
lhand -39.731 29.4749 0.247867
lfingers 7.12502 -0 0
lthumb -12.7071 59.0496 0.257176
rclavicle -7.76456e-14 -1.07344e-14 0
rhumerus -35.7813 55.4719 -92.0683
rradius 111.933 -0 0
rwrist -70.1785 0 0
rhand -4.56464 -22.6587 0.16467
rfingers 7.12502 -0 0
rthumb 21.199 -51.3147 0.198009
2659
root -2.78005 15.0989 -28.3482 170.079 -63.8793 -176.161
lfemur -35.1181 28.6524 -1.88222
ltibia 47.1596 -0 0
lfoot 19.4281 12.371 -0.12078
ltoes 8.96129 -0 0
rfemur -30.8904 -19.2884 18.918
rtibia 70.2722 -0 0
rfoot -25.268 -10.8254 -0.0624718
rtoes -6.56422 0 0
lowerback 16.0274 5.22812 2.27925
upperback -0.759632 7.4229 0.696137
thorax -9.45172 3.44354 -2.23997
lowerneck -2.67712 9.81297 2.33671
upperneck 7.68932 12.9171 0.60688
head 3.06031 6.49077 0.28608
lclavicle -7.76456e-14 -1.07344e-14 0
lhumerus 8.42975 -12.1875 76.9847
lradius 113.702 -0 0
lwrist -13.1578 0 0
lhand -40.0007 29.0757 0.217878
lfingers 7.12502 -0 0
lthumb -12.9673 58.6331 0.225093
rclavicle -7.76456e-14 -1.07344e-14 0
rhumerus -36.8923 56.0386 -93.0235
rradius 112.708 -0 0
rwrist -72.6045 0 0
rhand -3.96424 -22.5733 0.142927
rfingers 7.12502 -0 0
rthumb 21.7772 -51.1898 0.171769
2660
root -2.89339 15.0994 -28.3211 170.228 -63.0522 -176.403
lfemur -35.3387 28.937 -1.81186
ltibia 46.1252 -0 0
lfoot 19.9139 12.2838 -0.118001
ltoes 9.42128 -0 0
rfemur -30.6267 -19.0241 18.8021
rtibia 70.4612 -0 0
rfoot -25.5232 -10.8512 -0.0549591
rtoes -6.60152 0 0
lowerback 16.0139 5.35639 2.39758
upperback -0.778214 7.61085 0.639175
thorax -9.45555 3.52586 -2.41564
lowerneck -2.62572 9.93247 2.44214
upperneck 7.79385 13.0769 0.552034
head 3.10197 6.56922 0.257318
lclavicle -7.76456e-14 -1.07344e-14 0
lhumerus 7.2846 -10.668 77.2505
lradius 113.271 -0 0
lwrist -14.4913 0 0
lhand -40.2582 28.6981 0.187098
lfingers 7.12502 -0 0
lthumb -13.2156 58.2394 0.192414
rclavicle -7.76456e-14 -1.07344e-14 0
rhumerus -38.0013 56.5572 -93.9801
rradius 113.437 -0 0
rwrist -74.9071 0 0
rhand -3.39067 -22.4978 0.121025
rfingers 7.12502 -0 0
rthumb 22.3295 -51.0762 0.14533
